<?xml version="1.0" encoding="utf-8"?>
<!-- Svg Vector Icons : http://www.onlinewebfonts.com/icon -->
<!DOCTYPE svg PUBLIC "-//W3C//DTD SVG 1.1//EN" "http://www.w3.org/Graphics/SVG/1.1/DTD/svg11.dtd">
<svg version="1.1" xmlns="http://www.w3.org/2000/svg" xmlns:xlink="http://www.w3.org/1999/xlink" x="0px" y="0px" viewBox="0 0 1000 1000" enable-background="new 0 0 1000 1000" xml:space="preserve">
<metadata> Svg Vector Icons : http://www.onlinewebfonts.com/icon </metadata>
<g><path d="M846.6,153.4c-191.1-191.2-502.1-191.2-693.3,0c-191.2,191.1-191.2,502.1,0,693.3c191.1,191.2,502.1,191.2,693.3,0C1037.8,655.5,1037.8,344.5,846.6,153.4L846.6,153.4L846.6,153.4z M796.9,796.9c-163.7,163.7-430.1,163.7-593.8,0c-163.7-163.7-163.7-430.1,0-593.8c163.7-163.7,430.1-163.7,593.8,0C960.6,366.8,960.6,633.2,796.9,796.9L796.9,796.9L796.9,796.9z"/></g>
</svg>