<?xml version="1.0" encoding="UTF-8"?>
<svg width="20px" height="20px" viewBox="0 0 20 20" version="1.1" xmlns="http://www.w3.org/2000/svg" xmlns:xlink="http://www.w3.org/1999/xlink">
    <g id="Asset-view" stroke="none" stroke-width="1" fill="none" fill-rule="evenodd">
        <g id="Symbols" transform="translate(-149.000000, -142.000000)" fill-rule="nonzero" fill="#FFFFFF">
            <g id="settings" transform="translate(149.000000, 142.000000)">
                <path d="M10,13.516 C11.922,13.516 13.516,11.922 13.516,10 C13.516,8.078 11.922,6.484 10,6.484 C8.078,6.484 6.484,8.078 6.484,10 C6.484,11.922 8.078,13.516 10,13.516 Z M17.453,10.984 L19.562,12.625 C19.75,12.766 19.796,13.047 19.656,13.281 L17.64,16.75 C17.499,16.984 17.265,17.031 17.031,16.938 L14.547,15.954 C14.031,16.329 13.469,16.704 12.859,16.938 L12.484,19.563 C12.437,19.797 12.25,19.985 12.015,19.985 L7.984,19.985 C7.75,19.985 7.562,19.797 7.515,19.563 L7.14,16.938 C6.531,16.704 5.968,16.375 5.452,15.954 L2.968,16.938 C2.734,17.032 2.499,16.985 2.359,16.75 L0.343,13.281 C0.202,13.047 0.249,12.765 0.437,12.625 L2.546,10.984 C2.499,10.656 2.499,10.328 2.499,10 C2.499,9.672 2.499,9.344 2.546,9.016 L0.437,7.375 C0.249,7.234 0.203,6.953 0.343,6.719 L2.359,3.25 C2.5,3.016 2.734,2.969 2.968,3.062 L5.452,4.046 C5.968,3.671 6.53,3.296 7.14,3.062 L7.515,0.437 C7.562,0.203 7.749,0.015 7.984,0.015 L12.015,0.015 C12.249,0.015 12.437,0.203 12.484,0.437 L12.859,3.062 C13.468,3.296 14.031,3.625 14.547,4.046 L17.031,3.062 C17.265,2.968 17.5,3.015 17.64,3.25 L19.656,6.719 C19.797,6.953 19.75,7.235 19.562,7.375 L17.453,9.016 C17.5,9.344 17.5,9.672 17.5,10 C17.5,10.328 17.5,10.656 17.453,10.984 Z" id="Shape"></path>
            </g>
        </g>
    </g>
</svg>