<?xml version="1.0" encoding="UTF-8"?>
<svg width="32px" height="32px" viewBox="0 0 32 32" version="1.1" xmlns="http://www.w3.org/2000/svg" xmlns:xlink="http://www.w3.org/1999/xlink">
    <g id="assets" stroke="none" stroke-width="1" fill="none" fill-rule="evenodd">
        <g id="apps">
            <rect id="Rectangle" x="0" y="0" width="32" height="32"></rect>
            <path d="M5,5 L8.14285714,5 L8.14285714,8.14285714 L5,8.14285714 L5,5 Z M14.4285714,5 L17.5714286,5 L17.5714286,8.14285714 L14.4285714,8.14285714 L14.4285714,5 Z M23.8571429,5 L27,5 L27,8.14285714 L23.8571429,8.14285714 L23.8571429,5 Z M5,14.4285714 L8.14285714,14.4285714 L8.14285714,17.5714286 L5,17.5714286 L5,14.4285714 Z M14.4285714,14.4285714 L17.5714286,14.4285714 L17.5714286,17.5714286 L14.4285714,17.5714286 L14.4285714,14.4285714 Z M23.8571429,14.4285714 L27,14.4285714 L27,17.5714286 L23.8571429,17.5714286 L23.8571429,14.4285714 Z M5,23.8571429 L8.14285714,23.8571429 L8.14285714,27 L5,27 L5,23.8571429 Z M14.4285714,23.8571429 L17.5714286,23.8571429 L17.5714286,27 L14.4285714,27 L14.4285714,23.8571429 Z M23.8571429,23.8571429 L27,23.8571429 L27,27 L23.8571429,27 L23.8571429,23.8571429 Z" id="Shape" stroke="#FFFFFF" fill="#FFFFFF" fill-rule="nonzero"></path>
        </g>
    </g>
</svg>