<?xml version="1.0" encoding="UTF-8"?>
<svg width="32px" height="32px" viewBox="0 0 32 32" version="1.1" xmlns="http://www.w3.org/2000/svg" xmlns:xlink="http://www.w3.org/1999/xlink">
    <g id="assets" stroke="none" stroke-width="1" fill="none" fill-rule="evenodd">
        <g id="asset-o">
            <rect id="Rectangle" x="0" y="0" width="32" height="32"></rect>
            <path d="M27.6315789,24.5263158 L27.6315789,25.8947368 C27.6315789,27.4 26.4,28.6315789 24.8947368,28.6315789 L5.73684211,28.6315789 C4.21789474,28.6315789 3,27.4 3,25.8947368 L3,6.73684211 C3,5.23157895 4.21789474,4 5.73684211,4 L24.8947368,4 C26.4,4 27.6315789,5.23157895 27.6315789,6.73684211 L27.6315789,8.10526316 L15.3157895,8.10526316 C13.7968421,8.10526316 12.5789474,9.33684211 12.5789474,10.8421053 L12.5789474,21.7894737 C12.5789474,23.2947368 13.7968421,24.5263158 15.3157895,24.5263158 L27.6315789,24.5263158 Z M15.3157895,21.7894737 L29,21.7894737 L29,10.8421053 L15.3157895,10.8421053 L15.3157895,21.7894737 Z M20.7894737,18.3684211 C19.6536842,18.3684211 18.7368421,17.4515789 18.7368421,16.3157895 C18.7368421,15.18 19.6536842,14.2631579 20.7894737,14.2631579 C21.9252632,14.2631579 22.8421053,15.18 22.8421053,16.3157895 C22.8421053,17.4515789 21.9252632,18.3684211 20.7894737,18.3684211 Z" id="Shape" stroke="#FFFFFF" fill-rule="nonzero"></path>
        </g>
    </g>
</svg>