<?xml version="1.0" encoding="UTF-8"?>
<svg width="58px" height="58px" viewBox="0 0 58 58" version="1.1" xmlns="http://www.w3.org/2000/svg" xmlns:xlink="http://www.w3.org/1999/xlink">
    <!-- Generator: Sketch 49.1 (51147) - http://www.bohemiancoding.com/sketch -->
    <title>bitcointalk</title>
    <desc>Created with Sketch.</desc>
    <defs></defs>
    <g id="Wireframes" stroke="none" stroke-width="1" fill="none" fill-rule="evenodd">
        <g id="Contact" transform="translate(-894.000000, -423.000000)">
            <g id="Group-2" transform="translate(220.000000, 424.000000)">
                <g id="Group-6" transform="translate(675.000000, 0.000000)">
                    <g id="bitcointalk">
                        <circle id="Oval-4" stroke="#E9E7E7" fill="#FFFFFF" cx="28" cy="28" r="28"></circle>
                        <g id="bitcoin" transform="translate(17.000000, 12.000000)" fill="#F59533" fill-rule="nonzero">
                            <path d="M22.0338462,10.1538462 C22.2915,12.7913077 21.1809231,14.3778462 19.4357308,15.2701154 C22.3308462,15.9643846 24.156,17.6892692 23.7980769,21.5566154 C23.3424231,26.3758846 19.7720769,27.6654231 14.6558077,27.9421154 L14.6558077,32.9987308 L11.6020385,32.9987308 L11.6020385,28.0208077 C10.8290769,28.0208077 10.0155,28.0208077 9.18288462,28.0005 L9.18288462,32.9987308 L6.12911538,32.9987308 L6.12911538,27.9421154 C5.41580769,27.9421154 4.70123077,27.9218077 3.96761538,27.9218077 L0.00126923077,27.9218077 L0.615576923,24.2930769 C2.85703846,24.3324231 2.81642308,24.2930769 2.81642308,24.2930769 C3.66934615,24.2930769 3.90669231,23.6787692 3.96634615,23.2815 L3.96634615,15.3094615 L4.28365385,15.3094615 C4.16434615,15.2891538 4.04630769,15.2891538 3.96634615,15.2891538 L3.96634615,9.59792308 C3.84703846,8.96330769 3.45103846,8.25 2.20084615,8.25 C2.20084615,8.25 2.24019231,8.21065385 0,8.25 L0,4.99823077 L4.20496154,5.01853846 C4.81926923,5.01853846 5.47419231,5.01853846 6.12911538,4.99823077 L6.12911538,0 L9.18288462,0 L9.18288462,4.89796154 C9.99646154,4.87765385 10.8087692,4.85861538 11.6020385,4.85861538 L11.6020385,0 L14.6558077,0 L14.6558077,4.99823077 C18.5828077,5.33584615 21.6962308,6.54542308 22.0325769,10.1538462 L22.0338462,10.1538462 Z M17.7705,20.9626154 C17.7705,17.0356154 11.3050385,17.6105769 9.24253846,17.6105769 L9.24253846,24.3133846 C11.3050385,24.3133846 17.7705,24.75 17.7705,20.9613462 L17.7705,20.9626154 Z M16.3629231,11.5220769 C16.3629231,7.93269231 10.9686923,8.46830769 9.24380769,8.46830769 L9.24380769,14.5568077 C10.9686923,14.5568077 16.3629231,14.9540769 16.3629231,11.5220769 Z" id="Shape"></path>
                        </g>
                    </g>
                </g>
            </g>
        </g>
    </g>
</svg>