<?xml version="1.0" encoding="UTF-8"?>
<svg width="32px" height="32px" viewBox="0 0 32 32" version="1.1" xmlns="http://www.w3.org/2000/svg" xmlns:xlink="http://www.w3.org/1999/xlink">
    <g id="assets" stroke="none" stroke-width="1" fill="none" fill-rule="evenodd">
        <g id="chat-o">
            <rect id="Rectangle" x="0" y="0" width="32" height="32"></rect>
            <path d="M26.4,3 L5.6,3 C4.17,3 3.013,4.17 3.013,5.6 L3,29 L8.2,23.8 L26.4,23.8 C27.83,23.8 29,22.63 29,21.2 L29,5.6 C29,4.17 27.83,3 26.4,3 Z M8.2,12.1 L23.8,12.1 L23.8,14.7 L8.2,14.7 L8.2,12.1 Z M18.6,18.6 L8.2,18.6 L8.2,16 L18.6,16 L18.6,18.6 Z M23.8,10.8 L8.2,10.8 L8.2,8.2 L23.8,8.2 L23.8,10.8 Z" id="Shape" stroke="#FFFFFF" fill-rule="nonzero"></path>
        </g>
    </g>
</svg>