<?xml version="1.0" encoding="UTF-8" standalone="no"?>
<svg
   xmlns:dc="http://purl.org/dc/elements/1.1/"
   xmlns:cc="http://creativecommons.org/ns#"
   xmlns:rdf="http://www.w3.org/1999/02/22-rdf-syntax-ns#"
   xmlns:svg="http://www.w3.org/2000/svg"
   xmlns="http://www.w3.org/2000/svg"
   version="1.1"
   id="svg-cogs"
   viewBox="0 0 300.00001 274"
  >
  <defs
     id="defs4" />
  <metadata
     id="metadata7">
    <rdf:RDF>
      <cc:Work
         rdf:about="">
        <dc:format>image/svg+xml</dc:format>
        <dc:type
           rdf:resource="http://purl.org/dc/dcmitype/StillImage" />
        <dc:title></dc:title>
      </cc:Work>
    </rdf:RDF>
  </metadata>
  <g
     transform="translate(0,-778.36221)"
     id="layer1">
    <flowRoot
       style="font-style:normal;font-weight:normal;font-size:40px;line-height:125%;font-family:sans-serif;letter-spacing:0px;word-spacing:0px;fill:#000000;fill-opacity:1;stroke:none;stroke-width:1px;stroke-linecap:butt;stroke-linejoin:miter;stroke-opacity:1"
       id="flowRoot4136"
       xml:space="preserve"><flowRegion
         id="flowRegion4138"><rect
           y="155.21935"
           x="77.14286"
           height="682.85712"
           width="685.71429"
           id="rect4140" /></flowRegion><flowPara
         id="flowPara4142" /></flowRoot>    <path
       id="path4155"
       d="m 209.73121,1047.0704 c -7.35033,-4.1728 -9.24788,-5.7099 -9.25,-7.4928 -0.001,-1.2337 1.63654,-6.3387 3.64001,-11.3443 l 3.64268,-9.1012 -2.08272,-3.6557 c -2.62174,-4.6019 -2.8869,-4.7219 -13.44117,-6.0829 -4.8062,-0.6197 -9.4187,-1.3878 -10.25,-1.7068 -1.23101,-0.4724 -1.51147,-2.7797 -1.51147,-12.43448 l 0,-11.85447 3.75,-0.98448 c 2.0625,-0.54147 6.675,-1.293 10.25,-1.67008 8.01794,-0.8457 9.02485,-1.3573 11.37734,-5.78068 l 1.87734,-3.52996 -3.62734,-9.06284 c -1.99504,-4.98457 -3.62722,-10.07225 -3.62708,-11.30595 2.1e-4,-1.79178 1.91432,-3.31994 9.5132,-7.59502 5.23212,-2.94356 10.17235,-5.09889 10.97829,-4.78962 0.80593,0.30927 4.28749,4.1725 7.73679,8.58496 l 6.27146,8.02265 5,-0.0114 5,-0.0114 6.52903,-8.22158 c 4.5757,-5.7619 7.15698,-8.20176 8.62799,-8.1553 1.15443,0.0365 5.9774,2.28646 10.71771,5 10.18303,5.82917 10.2193,5.95448 5.12527,17.70934 -1.925,4.44209 -3.5,8.64657 -3.5,9.34329 0,2.16593 4.0587,8.26854 5.82261,8.75483 0.92257,0.25433 4.37739,0.75443 7.67739,1.11133 3.3,0.3569 7.6875,1.08611 9.75,1.62046 l 3.75,0.97155 0,11.85447 c 0,9.65478 -0.28046,11.96208 -1.51147,12.43448 -0.8313,0.319 -5.4438,1.0871 -10.25,1.7068 -10.57245,1.3634 -10.81558,1.4743 -13.48059,6.1519 l -2.12214,3.7247 3.6821,9.0028 c 2.02516,4.9516 3.68198,10.0255 3.68184,11.2753 -2.1e-4,1.8289 -1.85728,3.3172 -9.5132,7.6244 -5.23212,2.9435 -10.17235,5.0989 -10.97829,4.7896 -0.80593,-0.3093 -4.28749,-4.1725 -7.73679,-8.585 l -6.27146,-8.0226 -5,0.013 -5,0.013 -6.56236,8.2187 c -3.6093,4.5202 -7.2093,8.3317 -8,8.47 -0.7907,0.1382 -5.59894,-2.111 -10.68497,-4.9983 z m 38.24733,-33.6456 c 5.69255,-2.6356 9.55453,-7.1849 11.07488,-13.046 2.49544,-9.62019 -1.96235,-18.94331 -11.07488,-23.16228 -14.94012,-6.91705 -31.25656,7.04148 -27.07488,23.16228 2.2117,8.5263 10.36975,14.8979 19.07488,14.8979 2.2,0 5.8,-0.8333 8,-1.8519 z m -165.871297,-0.3541 c -0.77957,-1.2375 -2.18535,-7.4513 -3.12396,-13.8085 l -1.70655,-11.55846 -5.862171,-2.59092 -5.86216,-2.59092 -9.78693,7.37365 c -5.38281,4.0555 -10.62583,7.38522 -11.65114,7.39938 -4.02375,0.0555 -25.63579,-21.78071 -25.63579,-25.90175 0,-1.03186 3.15,-5.95194 7,-10.9335 3.85,-4.98155 7.00129,-9.41324 7.00287,-9.84819 0.002,-0.43496 -1.16902,-3.55179 -2.60133,-6.92629 l -2.60422,-6.13546 -11.64866,-1.73974 c -6.4067598,-0.95685 -12.4361598,-2.14923 -13.3986598,-2.64972 -1.56154997,-0.812 -1.74834997,-2.70991 -1.73468997,-17.6248 0.008,-9.19315 0.3622,-17.26069 0.78617997,-17.92786 0.42397,-0.66718 6.58284,-2.14543 13.6863598,-3.28501 7.10352,-1.13958 12.95427,-2.16871 13.00167,-2.28696 0.0474,-0.11824 1.12804,-2.81065 2.40145,-5.98313 2.63685,-6.56927 2.7814,-6.12355 -5.16542,-15.9276 -5.70555,-7.03899 -7.72555,-10.0141 -7.72555,-11.37842 0,-3.48675 22.75393,-25.42584 26.37018,-25.42584 1.11053,0 6.32983,3.31988 11.59845,7.3775 l 9.57932,7.37751 6.01714,-2.46833 6.017131,-2.46832 1.75941,-12.13626 c 1.10694,-7.63563 2.3544,-12.79373 3.36387,-13.90918 1.41011,-1.55815 3.56568,-1.77292 17.7945,-1.77292 14.414637,0 16.371507,0.20054 17.845007,1.82874 0.91025,1.00581 1.65241,2.46831 1.64925,3.25 -0.003,0.78169 0.72494,6.19796 1.61799,12.03615 l 1.62373,10.61489 5.15134,2.13511 c 2.83323,1.17431 5.71639,2.13511 6.40703,2.13511 0.69063,0 5.44649,-3.15 10.56857,-7 5.12208,-3.85 10.28446,-7 11.47196,-7 4.04381,0 25.16512,21.79109 25.16512,25.96313 0,0.98095 -3.15,5.85377 -7,10.82849 -3.85,4.97473 -7.00129,9.41923 -7.00287,9.87667 -0.002,0.45744 1.16314,3.57884 2.58828,6.93645 l 2.59115,6.10473 12.16172,1.77347 c 6.68895,0.9754 12.72422,2.22087 13.41172,2.76771 1.93017,1.53524 1.76386,34.07799 -0.18241,35.69325 -0.78782,0.65384 -6.95368,2.0748 -13.7019,3.15769 -6.74822,1.08288 -12.30817,2.06553 -12.35544,2.18365 -0.0473,0.11812 -1.08141,2.69846 -2.29809,5.73409 -1.21669,3.03563 -2.21216,5.81865 -2.21216,6.18448 0,0.36584 2.61596,3.95715 5.81325,7.98068 9.81101,12.34638 9.73851,12.18668 7.314,16.10961 -3.55362,5.74989 -21.73725,22.7059 -24.3498,22.7059 -1.35694,0 -5.87119,-2.77591 -10.80413,-6.64371 -4.66033,-3.65404 -8.95062,-7.01343 -9.53399,-7.46531 -0.59752,-0.46285 -3.65415,0.23045 -7,1.58771 l -5.93933,2.40931 -1.81545,12.29958 c -1.129,7.64896 -2.41648,12.96376 -3.40499,14.05596 -1.39238,1.5386 -3.61404,1.7565 -17.911487,1.7565 -15.83984,0 -16.36383,-0.067 -17.73937,-2.25 z m 27.871297,-59.10939 c 7.48468,-1.99934 12.46746,-4.89137 17.80415,-10.33363 8.39978,-8.56594 11.87232,-16.84368 11.87232,-28.30088 0,-15.99467 -8.48031,-29.30545 -23.17647,-36.378 -5.94763,-2.86231 -7.3498,-3.12814 -16.499997,-3.12814 -9.11532,0 -10.57504,0.27402 -16.5,3.09741 -14.832821,7.06822 -23.294081,20.55507 -23.118181,36.84931 0.12298,11.39218 3.77494,20.05006 11.80759,27.99286 10.074461,9.96177 24.319231,13.80492 37.810588,10.20107 z m 99.75267,-66.89096 c -7.35033,-4.17277 -9.24788,-5.70984 -9.25,-7.49279 -0.001,-1.2337 1.62963,-6.32138 3.62467,-11.30595 l 3.62734,-9.06284 -1.87734,-3.52686 c -1.03254,-1.93977 -2.28607,-3.78517 -2.78562,-4.10089 -0.49955,-0.31572 -4.98972,-1.18072 -9.97814,-1.92222 -13.84803,-2.05843 -12.61358,-0.65238 -12.61358,-14.36698 l 0,-11.89407 3.75,-0.98449 c 2.0625,-0.54146 6.675,-1.293 10.25,-1.67007 8.01794,-0.8457 9.02485,-1.3573 11.37734,-5.78068 l 1.87734,-3.52996 -3.62734,-9.06285 c -1.99504,-4.98456 -3.62722,-10.07224 -3.62708,-11.30594 2.1e-4,-1.79178 1.91432,-3.31994 9.5132,-7.59502 5.23212,-2.94356 10.17235,-5.09889 10.97829,-4.78962 0.80593,0.30927 4.28749,4.1725 7.73679,8.58496 l 6.27146,8.02265 5,0 5,0 6.27146,-8.02265 c 3.4493,-4.41246 6.93086,-8.27569 7.73679,-8.58496 0.80594,-0.30927 5.74617,1.84606 10.97829,4.78962 11.18842,6.29454 11.16801,6.23302 6.01346,18.12755 -1.925,4.44209 -3.5,8.64657 -3.5,9.34329 0,2.16593 4.0587,8.26854 5.82261,8.75482 0.92257,0.25434 4.37739,0.75444 7.67739,1.11134 3.3,0.3569 7.6875,1.08611 9.75,1.62046 l 3.75,0.97155 0,11.89407 c 0,13.7146 1.23445,12.30855 -12.61358,14.36698 -4.98842,0.7415 -9.47859,1.6065 -9.97814,1.92222 -0.49955,0.31572 -1.77029,2.19308 -2.82387,4.17191 l -1.91558,3.59787 3.66558,8.9625 c 2.01608,4.92937 3.66547,9.98509 3.66533,11.23493 -2.1e-4,1.82883 -1.85728,3.31717 -9.5132,7.62435 -5.23212,2.94356 -10.17235,5.09889 -10.97829,4.78962 -0.80593,-0.30927 -4.28749,-4.1725 -7.73679,-8.58496 l -6.27146,-8.02265 -5,0.0127 -5,0.0127 -6.56236,8.21866 c -3.6093,4.52026 -7.2093,8.33178 -8,8.47003 -0.7907,0.13825 -5.59894,-2.11099 -10.68497,-4.99831 z m 38.24733,-33.64555 c 9.11253,-4.21897 13.57032,-13.54209 11.07488,-23.16226 -3.06033,-11.79786 -16.14889,-18.10458 -27.07488,-13.04602 -15.71004,7.27351 -15.71004,28.93476 0,36.20828 2.2,1.01856 5.8,1.85194 8,1.85194 2.2,0 5.8,-0.83338 8,-1.85194 z" />
  </g>
</svg>
