<?xml version="1.0" encoding="UTF-8"?>
<svg width="59px" height="50px" viewBox="0 0 59 50" version="1.1" xmlns="http://www.w3.org/2000/svg" xmlns:xlink="http://www.w3.org/1999/xlink">
    <g id="cogs" stroke="none" stroke-width="1" fill="none" fill-rule="evenodd">
        <g>
            <path d="M15.5578229,38.5820964 C15.409216,38.3467493 15.1412367,37.1650117 14.9623125,35.9560025 L14.6369984,33.75782 L13.5195116,33.2650801 L12.4020269,32.7723401 L10.536376,34.1746574 C9.51026831,34.9459305 8.51080831,35.579175 8.31535677,35.581868 C7.54832228,35.5924229 3.42848877,31.4396229 3.42848877,30.6558854 C3.42848877,30.4596468 4.02896311,29.5239483 4.7628762,28.5765576 C5.49678929,27.6291688 6.09750954,26.7863521 6.09781073,26.7036335 C6.09819199,26.620913 5.87496422,26.0281557 5.60192758,25.3863949 L5.10549352,24.2195561 L2.88494702,23.8886931 C1.66364705,23.7067199 0.514281967,23.4799536 0.330803695,23.3847706 C0.0331304579,23.2303449 -0.00247862387,22.8694012 0.000125337891,20.0328945 C0.0016503521,18.2845456 0.0691703562,16.7502647 0.149992291,16.6233826 C0.230812325,16.4964986 1.40485786,16.2153657 2.75897894,15.998641 C4.11310005,15.7819162 5.22840967,15.5861967 5.23744537,15.563708 C5.24648108,15.5412212 5.45248,15.0291799 5.69522605,14.4258392 C6.19788026,13.1764985 6.22543536,13.2612653 4.71055868,11.3967357 C3.62292808,10.058064 3.23786199,9.49225896 3.23786199,9.23279322 C3.23786199,8.56968476 7.57537031,4.39731902 8.26472439,4.39731902 C8.47642115,4.39731902 9.47135948,5.02869223 10.4756995,5.80036848 L12.3017744,7.20341983 L13.4488024,6.733994 L14.5958287,6.26457008 L14.9312194,3.9565019 C15.1422318,2.50436141 15.380031,1.52339639 15.5724631,1.31126064 C15.8412678,1.01493241 16.2521771,0.974087555 18.9645712,0.974087555 C21.712387,0.974087555 22.0854188,1.01222616 22.3663074,1.32187646 C22.5398254,1.51316093 22.681301,1.79129849 22.6806986,1.93995992 C22.6801267,2.08862135 22.8188916,3.11868502 22.9891308,4.22898922 L23.2986572,6.24772397 L24.2806406,6.65377818 C24.8207301,6.8771079 25.3703376,7.05983239 25.501992,7.05983239 C25.6336446,7.05983239 26.5402389,6.46076688 27.5166445,5.72857571 C28.4930501,4.99638453 29.4771379,4.39731902 29.7035072,4.39731902 C30.4743657,4.39731902 34.5006529,8.54153819 34.5006529,9.33497478 C34.5006529,9.52153139 33.9001786,10.448242 33.1662655,11.3943319 C32.4323524,12.3404237 31.8316321,13.1856766 31.8313309,13.2726723 C31.8309497,13.359668 32.0530566,13.9532944 32.3247264,14.5918431 L32.818669,15.7528377 L35.1370185,16.0901154 C36.4121114,16.2756165 37.5625955,16.5124794 37.6936514,16.6164772 C38.0615935,16.9084484 38.0298904,23.0974132 37.6588792,23.4046026 C37.5086996,23.5289495 36.3333216,23.799187 35.0469302,24.0051305 C33.7605387,24.2110722 32.7006634,24.3979521 32.6916525,24.4204161 C32.6826358,24.4428801 32.4855068,24.9336079 32.253575,25.5109226 C32.0216413,26.0882373 31.831878,26.6175107 31.831878,26.6870841 C31.831878,26.7566593 32.3305501,27.439653 32.9400391,28.204846 C34.8102804,30.5528747 34.7964599,30.522503 34.3342834,31.268564 C33.6568683,32.3620754 30.1905815,35.5867613 29.6925595,35.5867613 C29.4338904,35.5867613 28.5733535,35.05884 27.633003,34.3232637 C26.7446194,33.6283401 25.9267752,32.9894529 25.8155693,32.9035146 C25.701666,32.81549 25.1189904,32.9473414 24.4811818,33.2054645 L23.3489865,33.6636659 L23.0029131,36.0027942 C22.7876955,37.4574698 22.5422673,38.468236 22.3538309,38.67595 C22.0884059,38.9685603 21.6648981,39.0100004 18.9394218,39.0100004 C15.9199242,39.0100004 15.8200377,38.9972583 15.5578229,38.5820964 Z M20.8708384,27.3407007 C22.2976188,26.9604671 23.2474701,26.4104622 24.2647861,25.3754558 C25.8660091,23.7463894 26.5279682,22.1721327 26.5279682,19.9932079 C26.5279682,16.9513491 24.9113941,14.4199113 22.1099125,13.0748571 C20.9761349,12.5305043 20.7088438,12.4799489 18.9645712,12.4799489 C17.2269472,12.4799489 16.9486854,12.5320619 15.8192294,13.0690128 C12.9916966,14.4132436 11.3787538,16.9781663 11.4122851,20.0769972 C11.4357284,22.2435566 12.1318897,23.8901081 13.6631279,25.400666 C15.5835899,27.2951907 18.2990245,28.0260791 20.8708384,27.3407007 Z" id="path4155" fill="#B5C0C8" fill-rule="nonzero"></path>
            <path d="M43.626368,22.3800539 C42.4627734,21.7210331 42.1623816,21.478278 42.162046,21.1966902 C42.1618877,21.0018474 42.4200247,20.1983315 42.7358497,19.4111001 L43.3100761,17.9797726 L43.0128836,17.4227627 C42.8494273,17.1164077 42.6509871,16.8249569 42.5719058,16.7750941 C42.4928245,16.7252313 41.7820078,16.5886187 40.9923156,16.4715109 C38.8001021,16.1464155 38.9955218,16.3684781 38.9955218,14.2024811 L38.9955218,12.3240071 L39.5891658,12.168523 C39.9156701,12.0830082 40.6458522,11.9643147 41.2117929,11.9047627 C42.4810735,11.7711982 42.6404725,11.6903993 43.0128836,10.9917987 L43.3100761,10.4342992 L42.7358497,9.00297014 C42.4200247,8.21574032 42.1616424,7.41222439 42.1616645,7.21738163 C42.1616978,6.93439925 42.4647111,6.69305135 43.6676524,6.01787231 C44.4959236,5.5529851 45.2779871,5.21258594 45.4055715,5.26143009 C45.5331543,5.31027423 46.0843029,5.92040829 46.6303446,6.61728425 L47.6231486,7.88433075 L48.414674,7.88433075 L49.2061994,7.88433075 L50.1990033,6.61728425 C50.745045,5.92040829 51.2961937,5.31027423 51.4237765,5.26143009 C51.5513609,5.21258594 52.3334244,5.5529851 53.1616955,6.01787231 C54.9328792,7.01199206 54.9296482,7.00227598 54.1136568,8.88082266 C53.8089195,9.5823782 53.559589,10.2464071 53.559589,10.3564427 C53.559589,10.6985159 54.2021018,11.6623235 54.4813377,11.7391234 C54.6273853,11.7792923 55.1743008,11.8582749 55.6967076,11.9146414 C56.2191143,11.971008 56.9136779,12.0861748 57.2401821,12.1705666 L57.8338261,12.3240071 L57.8338261,14.2024811 C57.8338261,16.3684781 58.0292458,16.1464155 55.8370324,16.4715109 C55.0473401,16.5886187 54.3365234,16.7252313 54.2574421,16.7750941 C54.1783608,16.8249569 53.9771962,17.1214553 53.8104092,17.4339791 L53.5071631,18.0022039 L54.0874431,19.4176844 C54.4065988,20.1961978 54.6677056,20.9946662 54.6676834,21.192058 C54.6676502,21.4808918 54.3736665,21.7159508 53.1616955,22.3961995 C52.3334244,22.8610867 51.5513609,23.2014859 51.4237765,23.1526417 C51.2961937,23.1037976 50.745045,22.4936635 50.1990033,21.7967876 L49.2061994,20.5297411 L48.414674,20.5317468 L47.6231486,20.5337526 L46.5842937,21.8317557 C46.0129231,22.5456569 45.4430249,23.1476242 45.317853,23.1694585 C45.1926812,23.1912928 44.4315124,22.8360621 43.626368,22.3800571 Z M49.6811146,17.066289 C51.1236744,16.3999717 51.8293652,14.9275372 51.4343243,13.4081885 C50.9498586,11.5449093 48.877873,10.5488659 47.1482333,11.3477828 C44.6612542,12.4965149 44.6612542,15.9175554 47.1482333,17.066289 C47.4965045,17.2271539 48.0664028,17.3587727 48.414674,17.3587727 C48.7629451,17.3587727 49.3328434,17.2271539 49.6811146,17.066289 Z" id="Combined-Shape" fill="#E9EFF4" transform="translate(48.414674, 14.213590) rotate(11.000000) translate(-48.414674, -14.213590) "></path>
            <path d="M39.2041862,48.9409731 C37.6452579,48.0580421 37.2428073,47.7328041 37.2423577,47.3555568 C37.2421456,47.0945158 37.5894508,46.0143388 38.0143658,44.9551941 L38.7869403,43.0294533 L38.3452171,42.2559366 C37.7891734,41.2822115 37.7329357,41.2568205 35.4944851,40.9688438 C34.4751402,40.8377203 33.4968771,40.6751965 33.320567,40.6076987 C33.0594826,40.5077426 33,40.0195365 33,37.9766626 L33,35.468352 L33.7953359,35.260044 C34.2327706,35.1454733 35.2110338,34.9864555 35.969254,34.9066684 C37.6697754,34.7277251 37.8833305,34.6194747 38.3822691,33.683523 L38.7804334,32.9366118 L38.0111124,31.0189877 C37.5879852,29.9642928 37.2418169,28.8877806 37.2418466,28.6267396 C37.2418911,28.2476133 37.6478539,27.9242669 39.2594971,27.0196944 C40.3691751,26.3968607 41.4169464,25.9408102 41.5878779,26.0062492 C41.7588072,26.0716883 42.4972098,26.8891167 43.2287703,27.8227578 L44.5588816,29.5202861 L45.6193295,29.5178739 L46.6797773,29.5154618 L48.0645165,27.7758415 C49.0349747,26.5566698 49.5824373,26.040415 49.8944232,26.0502456 C50.1392657,26.0579687 51.1621674,26.5340421 52.1675377,27.1082054 C54.3272521,28.3416109 54.3349446,28.3681255 53.254554,30.8553594 C52.8462816,31.79527 52.5122405,32.6849042 52.5122405,32.8323245 C52.5122405,33.2906179 53.3730484,34.5818811 53.7471554,34.6847762 C53.9428228,34.7385904 54.6755541,34.8444075 55.3754497,34.9199247 C56.0753453,34.9954419 57.0058883,35.1497368 57.443323,35.262801 L58.2386589,35.4683732 L58.2386589,37.9766838 C58.2386589,40.0195576 58.1791763,40.5077638 57.9180919,40.6077198 C57.7417818,40.6752176 56.7635187,40.8377414 55.7441738,40.968865 C53.5018674,41.2573495 53.4503021,41.280815 52.8850812,42.2705576 L52.4349975,43.0586742 L53.2159325,44.9635943 C53.6454478,46.0113131 53.996842,47.0849095 53.9968123,47.3493572 C53.9967678,47.7363377 53.6029026,48.05125 51.9791618,48.962619 C50.8694838,49.5854399 49.8217125,50.0415052 49.650781,49.9760598 C49.4798517,49.9106144 48.7414491,49.0931924 48.0098886,48.1595428 L46.6797773,46.4620251 L45.6193295,46.4647758 L44.5588816,46.4675265 L43.1670735,48.2065374 C42.4015786,49.1629754 41.6380561,49.9694582 41.4703569,49.9987213 C41.3026577,50.0279633 40.2828801,49.5520507 39.2041862,48.9411212 L39.2041862,48.9409731 Z M47.316046,41.8218345 C48.5233765,41.2641627 49.3424622,40.3015674 49.6649126,39.0614057 C50.1941694,37.0258508 49.2487186,35.0531536 47.316046,34.1604534 C44.1474024,32.6968612 40.6868556,35.650374 41.5737463,39.0614057 C42.0428248,40.8655023 43.7730622,42.2136817 45.6193295,42.2136817 C46.0859265,42.2136817 46.849449,42.0373621 47.316046,41.8218345 Z" id="Combined-Shape" fill="#D9E3EB"></path>
        </g>
    </g>
</svg>