<?xml version="1.0" encoding="UTF-8" standalone="no"?>
<!-- Created with Inkscape (http://www.inkscape.org/) -->

<svg
   xmlns:dc="http://purl.org/dc/elements/1.1/"
   xmlns:cc="http://creativecommons.org/ns#"
   xmlns:rdf="http://www.w3.org/1999/02/22-rdf-syntax-ns#"
   xmlns:svg="http://www.w3.org/2000/svg"
   xmlns="http://www.w3.org/2000/svg"
   version="1.1"
   id="svg-logout"
   viewBox="0 0 250 210"
  >
  <defs
     id="defs4" />
  <metadata
     id="metadata7">
    <rdf:RDF>
      <cc:Work
         rdf:about="">
        <dc:format>image/svg+xml</dc:format>
        <dc:type
           rdf:resource="http://purl.org/dc/dcmitype/StillImage" />
        <dc:title></dc:title>
      </cc:Work>
    </rdf:RDF>
  </metadata>
  <g
     inkscape:label="Layer 1"
     inkscape:groupmode="layer"
     id="layer1"
     transform="translate(0,-842.36216)">
    <path
       style="fill:#ffffff"
       d="m 36.760102,1045.8393 c -7.813544,-1.8939 -13.117274,-4.7611 -19.024884,-10.285 -6.58588,-6.1581 -10.15602,-11.501 -12.66831,-18.9586 -2.00221,-5.9434 -2.06691,-8.1029 -2.06691,-68.98555 0,-68.20697 3e-4,-68.21116 5.62231,-77.82341 3.10948,-5.31646 12.80722,-14.5478 18.14178,-17.26929 8.873504,-4.52692 13.944544,-5.12035 43.754884,-5.12035 21.91681,0 28.50223,0.29501 29.932598,1.34093 1.46585,1.07185 1.84679,2.75694 1.89844,8.39774 0.0411,4.48793 -0.41945,7.64008 -1.26514,8.65907 -1.161838,1.39993 -4.881588,1.60296 -29.457318,1.60784 -15.78258,0.003 -29.71751,0.44722 -31.75022,1.01184 -4.95442,1.37619 -12.223164,8.01692 -15.043584,13.74384 l -2.33375,4.73874 0,60 c 0,55.6524 0.13203,60.3422 1.82206,64.7221 2.21321,5.7358 9.792474,12.8964 15.442124,14.5891 2.64723,0.7931 13.10173,1.1888 31.41071,1.1888 21.36835,0 27.84877,0.2968 29.276678,1.3409 1.46585,1.0719 1.84679,2.757 1.89844,8.3978 0.0411,4.4879 -0.41945,7.64 -1.26514,8.659 -1.166138,1.4051 -4.852288,1.592 -29.957318,1.519 -20.7859,-0.06 -30.19982,-0.4644 -34.36745,-1.4745 z m 111.568638,-4.9 c -1.7442,-0.7587 -3.6567,-2.2865 -4.25,-3.3951 C 143.39281,1036.2625 143,1026.7654 143,1011.4628 l 0,-24.0657 -35.35078,0 c -22.628718,0 -36.460368,-0.38681 -38.434008,-1.07482 -6.17267,-2.1518 -6.21749,-2.43512 -6.19297,-39.14 0.0201,-30.02688 0.19136,-33.49398 1.75,-35.41814 3.43524,-4.24089 4.65322,-4.36704 42.162018,-4.36704 l 36.06574,0 0,-24.54546 0,-24.54545 2.41388,-2.41388 c 3.0975,-3.0975 6.88666,-4.02758 10.42963,-2.56003 1.54258,0.63896 22.68385,21.07396 46.98059,45.41112 L 247,942.99278 l 0,4.40379 0,4.40379 -43.75,43.90602 c -38.60978,38.74742 -47.43819,46.82822 -50.96788,46.65162 -0.43017,-0.022 -2.20919,-0.66 -3.95338,-1.4187 z"
       id="path4147"
       inkscape:connector-curvature="0" />
  </g>
</svg>
