<?xml version="1.0" encoding="UTF-8"?>
<svg width="32px" height="32px" viewBox="0 0 32 32" version="1.1" xmlns="http://www.w3.org/2000/svg" xmlns:xlink="http://www.w3.org/1999/xlink">
    <g id="assets" stroke="none" stroke-width="1" fill="none" fill-rule="evenodd">
        <g id="logout-o">
            <rect id="Rectangle" x="0" y="0" width="32" height="32"></rect>
            <path d="M24.3951111,6 C27.1713333,8.3821636 29,11.9880712 29,15.9351174 C29,23.1483842 23.1774444,29 16,29 C8.82255556,29 3,23.1483842 3,15.9351174 C3,11.9880712 4.82866667,8.3821636 7.60488889,6 L9.63577778,8.04102499 C7.40122222,9.87881848 5.912,12.7356728 5.912,15.9351174 C5.912,21.5835016 10.3811111,26.0734663 16,26.0734663 C21.6188889,26.0734663 26.088,21.58205 26.088,15.9351174 C26.088,12.7371245 24.6666667,9.9470462 22.3642222,8.10925271 L24.3951111,6 Z M18,3 L18,17 L15,17 L15,3 L18,3 Z" id="Shape" stroke="#FFFFFF" fill-rule="nonzero"></path>
        </g>
    </g>
</svg>