<?xml version="1.0" encoding="UTF-8"?>
<svg width="58px" height="58px" viewBox="0 0 58 58" version="1.1" xmlns="http://www.w3.org/2000/svg" xmlns:xlink="http://www.w3.org/1999/xlink">
    <!-- Generator: Sketch 49.1 (51147) - http://www.bohemiancoding.com/sketch -->
    <title>riot</title>
    <desc>Created with Sketch.</desc>
    <defs></defs>
    <g id="Wireframes" stroke="none" stroke-width="1" fill="none" fill-rule="evenodd">
        <g id="Contact" transform="translate(-569.000000, -423.000000)">
            <g id="Group-2" transform="translate(220.000000, 424.000000)">
                <g id="Group-4" transform="translate(350.000000, 0.000000)">
                    <g id="riot">
                        <circle id="Oval-4" stroke="#E9E7E7" fill="#FFFFFF" cx="28" cy="28" r="28"></circle>
                        <g transform="translate(12.000000, 14.000000)" fill-rule="nonzero">
                            <path d="M12.0407853,1.36304348 L5.03644565,1.36304348 C4.10709124,1.36304337 3.21582566,1.73234454 2.55883265,2.3896571 C1.90183964,3.04696966 1.53297189,3.93841472 1.53342391,4.86776902 L1.53342391,22.3828777 C1.53342391,24.3175432 3.10178017,25.8858995 5.03644565,25.8858995 C6.97111114,25.8858995 8.53946739,24.3175432 8.53946739,22.3828777 L8.53946739,18.8764484 L12.0407853,18.8764484 C16.8769785,18.8764484 20.7974878,14.9559391 20.7974878,10.1197459 C20.7974878,5.2835527 16.8769785,1.36304348 12.0407853,1.36304348 Z" id="Shape" fill="#764D80"></path>
                            <circle id="Oval" fill="#AFDBC5" transform="translate(5.032817, 4.883291) rotate(-34.804012) translate(-5.032817, -4.883291) " cx="5.03281655" cy="4.88329068" r="3.49828946"></circle>
                            <path d="M20.1662283,20.3706848 C21.2761203,21.9557743 20.8908966,24.1404884 19.3058071,25.2503804 C17.7207176,26.3602724 15.5360034,25.9750487 14.4261114,24.3899592 L9.18009783,16.8932201 C8.07067632,15.3076601 8.45666283,13.122946 10.0422228,12.0135245 C11.6277828,10.904103 13.812497,11.2900895 14.9219185,12.8756495 L20.1662283,20.3706848 Z" id="Shape" fill="#AFDBC5"></path>
                            <path d="M26.5854206,10.2531358 L31.807362,10.2531358 C32.0967754,10.2531358 32.3313913,10.0167422 32.3313913,9.72513586 C32.3313913,9.43352952 32.0967754,9.19713587 31.807362,9.19713587 L26.5854206,9.19713587 C26.2960072,9.19713587 26.0613913,9.43352952 26.0613913,9.72513586 C26.0613913,10.0167422 26.2960072,10.2531358 26.5854206,10.2531358 Z" id="Shape" fill="#AFDBC5"></path>
                            <path d="M26.5849074,2.46753768 L28.1452707,2.46753768 L28.1452707,4.14145774 L28.1350856,4.14145774 L26.3017606,5.49950328 C26.1485671,5.61273822 26.0642782,5.80358403 26.0806446,6.00015095 C26.097011,6.19671787 26.2115463,6.3691427 26.3811062,6.45247467 C26.5506661,6.53580665 26.7494903,6.51738565 26.9026838,6.4041507 L28.3754549,5.31685475 C28.8057608,6.23534825 29.7800727,6.71902014 30.7252704,6.48335983 C31.6704681,6.24769953 32.3364076,5.35507394 32.3313628,4.33055269 L32.3313628,1.93033613 C32.3313628,1.93033613 32.3313628,1.93033613 32.3313628,1.91529448 C32.3313724,1.76770669 32.2753783,1.62625564 32.1758743,1.52250263 C32.0763702,1.41874962 31.9416365,1.36132847 31.8017356,1.36305128 L26.5849074,1.36305128 C26.2957775,1.36305128 26.0613913,1.61029898 26.0613913,1.91529448 C26.0613913,2.22028998 26.2957775,2.46753768 26.5849074,2.46753768 Z M31.2700714,4.33914791 C31.2870207,4.74341702 31.0922184,5.12486897 30.7628606,5.33234199 C30.4335028,5.53981502 30.0227605,5.53981502 29.6934027,5.33234199 C29.3640449,5.12486897 29.1692426,4.74341702 29.1861919,4.33914791 L29.1861919,2.46753768 L31.2700714,2.46753768 L31.2700714,4.33914791 Z" id="Shape" fill="#AFDBC5"></path>
                            <path d="M31.8134947,21.5156413 C31.5237044,21.5156413 31.2887829,21.748081 31.2887829,22.0348099 L31.2887829,23.5700944 L26.5929183,23.5700944 C26.3047152,23.5700858 26.0704493,23.800073 26.0682065,24.0852228 C26.0682065,24.3719517 26.303128,24.6043914 26.5929183,24.6043914 L31.2887829,24.6043914 L31.2887829,26.1760379 C31.2887829,26.4627668 31.5237044,26.6952065 31.8134947,26.6952065 C32.103285,26.6952065 32.3382065,26.4627668 32.3382065,26.1760379 L32.3382065,24.0852228 L32.3382065,22.0348099 C32.3382065,21.748081 32.103285,21.5156413 31.8134947,21.5156413 Z" id="Shape" fill="#AFDBC5"></path>
                            <path d="M29.1500892,13.7377745 C27.4189377,13.7387153 26.0163553,14.9329436 26.0170927,16.4053634 C26.01783,17.8777832 27.4216079,19.0709949 29.1527597,19.0706815 C30.8839115,19.070368 32.287092,17.8766482 32.2870924,16.4042283 C32.2848831,14.9317004 30.881369,13.738713 29.1500892,13.7377745 Z M29.1500892,18.1949266 C28.2985514,18.1949266 27.5308616,17.758637 27.2049922,17.0894989 C26.8791228,16.4203607 27.0592483,15.6501494 27.6613764,15.1380133 C28.2635045,14.6258772 29.1690565,14.4726726 29.9557748,14.7498387 C30.7424931,15.0270048 31.255447,15.6799584 31.255447,16.4042283 C31.2543427,17.3928143 30.3123885,18.1939874 29.1500892,18.1949266 Z" id="Shape" fill="#AFDBC5"></path>
                        </g>
                    </g>
                </g>
            </g>
        </g>
    </g>
</svg>