<?xml version="1.0" encoding="UTF-8"?>
<svg width="58px" height="58px" viewBox="0 0 58 58" version="1.1" xmlns="http://www.w3.org/2000/svg" xmlns:xlink="http://www.w3.org/1999/xlink">
    <!-- Generator: Sketch 49.1 (51147) - http://www.bohemiancoding.com/sketch -->
    <title>slack</title>
    <desc>Created with Sketch.</desc>
    <defs></defs>
    <g id="Wireframes" stroke="none" stroke-width="1" fill="none" fill-rule="evenodd">
        <g id="Contact" transform="translate(-410.000000, -423.000000)">
            <g id="Group-2" transform="translate(220.000000, 424.000000)">
                <g id="Group" transform="translate(191.000000, 0.000000)">
                    <g id="slack">
                        <circle id="Oval-4" stroke="#E9E7E7" fill="#FFFFFF" cx="28" cy="28" r="28"></circle>
                        <g transform="translate(14.000000, 14.000000)" fill-rule="nonzero" id="Shape">
                            <path d="M19.1182323,1.74287011 C18.6597646,0.420260406 17.1878419,-0.299053644 15.8124387,0.118612578 C14.4370356,0.55948248 13.6890093,1.9749069 14.1233471,3.29751661 L20.9038434,23.3454953 C21.3623111,24.5752903 22.7618441,25.2714007 24.0889875,24.9001418 C25.4885206,24.5056792 26.3330664,23.0902548 25.8745986,21.7908488 C25.8745986,21.7444414 19.1182323,1.74287011 19.1182323,1.74287011 Z" fill="#ECB32D"></path>
                            <path d="M8.11823227,4.74287011 C7.65976456,3.42026041 6.18784188,2.70094636 4.81243873,3.11861258 C3.43703557,3.55948248 2.68900929,4.9749069 3.12334713,6.29751661 L9.90384339,26.3454953 C10.3623111,27.5752903 11.7618441,28.2714007 13.0889875,27.9001418 C14.4885206,27.5056792 15.3330664,26.0902548 14.8745986,24.7908488 C14.8745986,24.7444414 8.11823227,4.74287011 8.11823227,4.74287011 Z" fill="#63C1A0"></path>
                            <path d="M26.258746,19.1079611 C27.5801293,18.6504134 28.2987763,17.1814446 27.8814974,15.8088015 C27.4410363,14.4361585 26.0269244,13.6896334 24.7055411,14.1230996 L4.65297051,20.9140703 C3.42431589,21.371618 2.72885101,22.7683424 3.09976561,24.0928225 C3.49386238,25.489547 4.90797429,26.332398 6.2061754,25.8748503 C6.25253972,25.8748503 26.258746,19.1079611 26.258746,19.1079611 Z" fill="#E01A59"></path>
                            <path d="M9.46715328,24 C10.6934307,23.6058394 12.2919708,23.080292 14,22.5328467 C13.6058394,21.3065693 13.080292,19.7080292 12.5328467,18 L8,19.4671533 L9.46715328,24 Z" fill="#331433"></path>
                            <path d="M19.4671533,21 C21.1751825,20.4525547 22.7737226,19.9270073 24,19.5328467 C23.6058394,18.3065693 23.080292,16.7080292 22.5328467,15 L18,16.4671533 L19.4671533,21 Z" fill="#D62027"></path>
                            <path d="M23.2571299,9.11823227 C24.5797396,8.65976456 25.2990536,7.18784188 24.8813874,5.81243873 C24.4405175,4.43703557 23.0250931,3.68900929 21.7024834,4.12334713 L1.65450471,10.9038434 C0.424709718,11.3623111 -0.271400654,12.7618441 0.099858211,14.0889875 C0.494320755,15.4885206 1.90974518,16.3330664 3.2091512,15.8745986 C3.25555856,15.8745986 23.2571299,9.11823227 23.2571299,9.11823227 Z" fill="#89D3DF"></path>
                            <path d="M5.46715328,14 C6.69343066,13.6058394 8.2919708,13.080292 10,12.5328467 C9.45255474,10.8248175 8.9270073,9.22627737 8.53284672,8 L4,9.46715328 L5.46715328,14 Z" fill="#258B74"></path>
                            <path d="M16.4671533,10 C18.1751825,9.45255474 19.7737226,8.9270073 21,8.53284672 C20.4525547,6.82481752 19.9270073,5.22627737 19.5328467,4 L15,5.46715328 L16.4671533,10 Z" fill="#819C3C"></path>
                        </g>
                    </g>
                </g>
            </g>
        </g>
    </g>
</svg>