<?xml version="1.0" encoding="UTF-8"?>
<svg width="32px" height="32px" viewBox="0 0 32 32" version="1.1" xmlns="http://www.w3.org/2000/svg" xmlns:xlink="http://www.w3.org/1999/xlink">
    <g id="assets" stroke="none" stroke-width="1" fill="none" fill-rule="evenodd">
        <g id="trade-o">
            <rect id="Rectangle" x="0" y="0" width="32" height="32"></rect>
            <path d="M26.1111111,3 L5.88888889,3 C4.3,3 3,4.3 3,5.88888889 L3,26.1111111 C3,27.7 4.3,29 5.88888889,29 L26.1111111,29 C27.7,29 29,27.7 29,26.1111111 L29,5.88888889 C29,4.3 27.7,3 26.1111111,3 Z M11.6666667,23.2222222 L8.77777778,23.2222222 L8.77777778,13.1111111 L11.6666667,13.1111111 L11.6666667,23.2222222 Z M17.4444444,23.2222222 L14.5555556,23.2222222 L14.5555556,8.77777778 L17.4444444,8.77777778 L17.4444444,23.2222222 Z M23.2222222,23.2222222 L20.3333333,23.2222222 L20.3333333,17.4444444 L23.2222222,17.4444444 L23.2222222,23.2222222 Z" id="Shape" stroke="#FFFFFF" fill-rule="nonzero"></path>
        </g>
    </g>
</svg>