<?xml version="1.0" encoding="UTF-8"?>
<svg width="58px" height="58px" viewBox="0 0 58 58" version="1.1" xmlns="http://www.w3.org/2000/svg" xmlns:xlink="http://www.w3.org/1999/xlink">
    <!-- Generator: Sketch 49.1 (51147) - http://www.bohemiancoding.com/sketch -->
    <title>twitter</title>
    <desc>Created with Sketch.</desc>
    <defs></defs>
    <g id="Wireframes" stroke="none" stroke-width="1" fill="none" fill-rule="evenodd">
        <g id="Contact" transform="translate(-720.000000, -423.000000)">
            <g id="Group-2" transform="translate(220.000000, 424.000000)">
                <g id="Group-5" transform="translate(501.000000, 0.000000)">
                    <g id="twitter">
                        <circle id="Oval-4" stroke="#E9E7E7" fill="#FFFFFF" cx="28" cy="28" r="28"></circle>
                        <path d="M43,18.8383524 C41.898644,19.3229491 40.7091795,19.6460136 39.4672249,19.7900081 C40.7382366,19.0395754 41.7111792,17.8516211 42.17328,16.4384447 C40.9838155,17.1307257 39.6659376,17.6383985 38.2655752,17.9097727 C37.1407861,16.7328949 35.5417109,16 33.7720427,16 C30.3742423,16 27.6203837,18.7118957 27.6203837,22.0579208 C27.6203837,22.5305181 27.6728738,22.9920388 27.7787915,23.4369447 C22.6647504,23.1831083 18.1299756,20.7712011 15.095857,17.1030345 C14.5681435,17.9974616 14.2644504,19.0414215 14.2644504,20.1490712 C14.2644504,22.2489904 15.3479973,24.1061498 17.0004999,25.1916465 C15.9928763,25.1630322 15.0443042,24.8861198 14.2119603,24.4356756 C14.2119603,24.4587516 14.2119603,24.4873659 14.2119603,24.5104419 C14.2119603,27.4466367 16.333125,29.8991577 19.1507217,30.4520595 C18.6351934,30.5905157 18.090608,30.6652821 17.5282135,30.6652821 C17.1298507,30.6652821 16.749297,30.6246683 16.3687434,30.5554402 C17.1542211,32.9608861 19.4272324,34.7146648 22.1154783,34.7672782 C20.0064988,36.3936772 17.3585578,37.3637937 14.4706618,37.3637937 C13.9729426,37.3637937 13.4864713,37.3351794 13,37.2770278 C15.7304255,39.0021922 18.9632569,40 22.4379179,40 C33.7561082,40 39.9480722,30.7640475 39.9480722,22.7566632 C39.9480722,22.4917503 39.9424483,22.2314526 39.9302631,21.972078 C41.1309754,21.1238029 42.1742173,20.056767 43,18.8392754 L43,18.8383524 Z" id="Shape" fill="#47C2E9" fill-rule="nonzero"></path>
                    </g>
                </g>
            </g>
        </g>
    </g>
</svg>